<?xml version="1.0" standalone="no"?>
<!DOCTYPE svg PUBLIC "-//W3C//DTD SVG 20010904//EN"
 "http://www.w3.org/TR/2001/REC-SVG-20010904/DTD/svg10.dtd">
<svg version="1.0" xmlns="http://www.w3.org/2000/svg"
 width="512.000000pt" height="512.000000pt" viewBox="0 0 512.000000 512.000000"
 preserveAspectRatio="xMidYMid meet">
<metadata>
Created by potrace 1.14, written by Peter Selinger 2001-2017
</metadata>
<g transform="translate(0.000000,512.000000) scale(0.100000,-0.100000)"
fill="#000000" stroke="none">
<path d="M2975 5105 c-146 -32 -253 -92 -365 -204 -131 -131 -195 -275 -206
-456 -3 -49 -7 -95 -9 -101 -2 -6 -36 -14 -77 -18 -244 -24 -539 -116 -773
-241 -202 -107 -346 -215 -516 -384 -358 -359 -567 -792 -627 -1301 -14 -121
-4 -541 14 -571 2 -4 6 -24 10 -45 39 -250 172 -580 329 -814 360 -537 912
-875 1555 -955 100 -12 444 -13 500 -2 14 3 43 8 65 11 203 26 472 111 670
213 333 171 633 444 840 763 125 191 251 490 289 680 2 14 10 50 16 80 27 136
37 247 37 415 0 134 -3 185 -22 315 -52 373 -220 749 -472 1060 -63 78 -239
250 -327 319 -324 254 -726 421 -1098 456 -96 10 -91 4 -85 96 10 154 93 274
237 343 l65 31 287 5 c271 5 288 6 315 26 98 73 98 195 0 268 -27 20 -41 21
-310 23 -201 1 -299 -3 -342 -12z m-180 -1098 c11 -2 36 -7 55 -11 188 -34
271 -57 420 -119 149 -61 328 -168 454 -270 74 -60 230 -217 271 -272 17 -22
35 -46 42 -53 31 -33 131 -195 178 -291 99 -201 160 -402 183 -611 9 -87 9
-349 -1 -430 -76 -618 -462 -1163 -1020 -1438 -149 -74 -363 -144 -507 -166
-19 -3 -53 -8 -75 -12 -66 -10 -376 -12 -440 -3 -33 5 -73 11 -90 14 -247 39
-510 141 -722 282 -97 64 -103 69 -212 164 -123 107 -298 316 -358 428 -11 20
-30 54 -43 76 -79 139 -152 349 -190 547 -34 176 -34 485 -1 655 109 553 423
996 906 1280 194 114 488 209 705 229 36 3 67 8 70 10 5 6 346 -3 375 -9z"/>
<path d="M1420 3284 c-51 -15 -67 -28 -91 -75 -24 -48 -24 -102 1 -158 26 -56
25 -62 -10 -114 -99 -147 -136 -370 -90 -537 90 -322 396 -474 675 -336 85 43
160 104 211 174 34 46 42 52 64 46 133 -38 250 99 189 221 -22 44 -63 75 -124
95 -71 23 -198 90 -279 148 -139 100 -257 245 -332 407 -54 117 -120 157 -214
129z m364 -799 l80 -58 -40 -35 c-80 -70 -165 -78 -225 -22 -56 51 -84 186
-59 279 l11 43 77 -74 c42 -41 113 -101 156 -133z"/>
<path d="M3610 3287 c-52 -13 -85 -50 -135 -153 -121 -249 -343 -445 -612
-539 -65 -23 -109 -64 -123 -115 -22 -80 15 -155 94 -190 36 -17 56 -18 113
-5 16 4 26 -3 42 -29 33 -53 140 -147 207 -183 237 -126 517 -42 640 193 58
109 69 157 69 294 0 111 -3 135 -29 213 -16 48 -46 115 -67 148 -22 33 -39 66
-39 73 0 8 9 33 20 57 62 137 -41 272 -180 236z m-22 -703 c11 -166 -82 -278
-203 -244 -25 7 -64 29 -87 49 l-41 37 94 71 c52 39 121 99 154 132 70 72 76
68 83 -45z"/>
<path d="M1481 1699 c-66 -14 -121 -73 -125 -135 -6 -86 -15 -75 341 -422 71
-70 112 -94 158 -94 71 0 86 10 236 157 58 57 110 105 116 107 6 2 68 -52 137
-120 70 -68 138 -127 152 -132 37 -15 105 -12 137 5 16 8 80 65 143 127 63 61
119 115 126 119 7 5 53 -33 122 -101 156 -153 173 -164 243 -162 62 2 81 17
351 284 91 90 142 148 143 162 0 11 2 30 4 41 6 28 -14 86 -39 113 -49 55
-139 71 -196 35 -15 -10 -83 -72 -150 -137 l-122 -119 -71 71 c-168 165 -199
191 -241 200 -85 17 -106 5 -283 -170 -87 -85 -104 -98 -116 -87 -8 8 -66 65
-130 126 -118 116 -146 134 -208 135 -62 1 -84 -16 -270 -199 l-76 -75 -122
118 c-67 65 -130 123 -139 130 -29 20 -85 31 -121 23z"/>
</g>
</svg>
